@startuml
class Personaje{
    + Mover()
}
class Arma{
    + Disparar()
}
class Jugador
class Consumible{
    - Puntuar()
    - Dar()
}
class Vehiculo{
    +Mover()
}
class MetalSlug
class H
class R
class F
class S
class L
class C
class SlugFlyer
class Prisionero
class CajaDeMadera

class Granada
class Municion{

}
class Marco
class Tarma
class Eri
class Fio
class Ralf
class Leona
class Enemigo
class Soldado
class Escudero
class Zombi
class Momia
class Cangrejo
class Alien
class Vida

H--|>Arma
C--|>Arma
F--|>Arma
R--|>Arma
S--|>Arma
L--|>Arma

Marco --|> Personaje
Tarma --|> Personaje
Fio --|> Personaje
Eri --|> Personaje
Ralf --|> Personaje
Leona --|> Personaje

Zombi --|> Enemigo
Momia --|> Enemigo
Cangrejo --|> Enemigo
Soldado --|>Enemigo
Escudero --|> Enemigo
Alien --|> Enemigo

MetalSlug --|> Vehiculo
SlugFlyer --|> Vehiculo
Prisionero --|> Consumible
CajaDeMadera --|> Consumible

Granada --|> Arma
Arma "1" *-- "*" Municion
Personaje "1" o-- "[]" Arma
Personaje o-- Consumible
Personaje "1" *-- "3" Vida
Jugador o-- Personaje
Enemigo o-- Arma
Personaje o-- Vehiculo
CajaDeMadera *-- Arma

@enduml